<svg width="50" height="50" viewBox="0 0 50 50" fill="none" xmlns="http://www.w3.org/2000/svg">
<path d="M2.08331 41.6666V35.8333C2.08331 34.6528 2.38748 33.568 2.99581 32.5791C3.60415 31.5902 4.41109 30.8347 5.41665 30.3125C7.56942 29.2361 9.75692 28.4291 11.9791 27.8916C14.2014 27.3541 16.4583 27.0847 18.75 27.0833C21.0416 27.0819 23.2986 27.3514 25.5208 27.8916C27.743 28.4319 29.9305 29.2389 32.0833 30.3125C33.0903 30.8333 33.8979 31.5889 34.5062 32.5791C35.1146 33.5694 35.418 34.6541 35.4166 35.8333V41.6666H2.08331ZM39.5833 41.6666V35.4166C39.5833 33.8889 39.1583 32.4215 38.3083 31.0146C37.4583 29.6076 36.2514 28.4014 34.6875 27.3958C36.4583 27.6041 38.125 27.9604 39.6875 28.4646C41.25 28.9687 42.7083 29.5847 44.0625 30.3125C45.3125 31.0069 46.2673 31.7791 46.9271 32.6291C47.5868 33.4791 47.9166 34.4083 47.9166 35.4166V41.6666H39.5833ZM18.75 25C16.4583 25 14.4965 24.184 12.8646 22.5521C11.2326 20.9201 10.4166 18.9583 10.4166 16.6666C10.4166 14.375 11.2326 12.4132 12.8646 10.7812C14.4965 9.14928 16.4583 8.33331 18.75 8.33331C21.0416 8.33331 23.0035 9.14928 24.6354 10.7812C26.2673 12.4132 27.0833 14.375 27.0833 16.6666C27.0833 18.9583 26.2673 20.9201 24.6354 22.5521C23.0035 24.184 21.0416 25 18.75 25ZM39.5833 16.6666C39.5833 18.9583 38.7673 20.9201 37.1354 22.5521C35.5035 24.184 33.5416 25 31.25 25C30.868 25 30.3819 24.9569 29.7916 24.8708C29.2014 24.7847 28.7153 24.6889 28.3333 24.5833C29.2708 23.4722 29.9916 22.2396 30.4958 20.8854C31 19.5312 31.2514 18.125 31.25 16.6666C31.2486 15.2083 30.9972 13.8021 30.4958 12.4479C29.9944 11.0937 29.2736 9.86108 28.3333 8.74997C28.8194 8.57636 29.3055 8.46317 29.7916 8.41039C30.2778 8.35761 30.7639 8.33192 31.25 8.33331C33.5416 8.33331 35.5035 9.14928 37.1354 10.7812C38.7673 12.4132 39.5833 14.375 39.5833 16.6666Z" fill="#6D6D6D"/>
</svg>
