<svg width="50" height="50" viewBox="0 0 50 50" fill="none" xmlns="http://www.w3.org/2000/svg">
<path d="M10.4167 18.75C10.4167 14.8822 11.9531 11.1729 14.688 8.43798C17.423 5.70308 21.1323 4.16663 25 4.16663C28.8678 4.16663 32.5771 5.70308 35.312 8.43798C38.0469 11.1729 39.5834 14.8822 39.5834 18.75V20.9062C43.1167 21.4125 45.8334 24.452 45.8334 28.125V28.6458C45.8334 32.3437 42.6438 35.5854 38.8917 35.4125C37.35 39.8291 33.4292 42.8062 29.1979 43.5604C28.2188 43.9187 27.0604 43.75 26.0417 43.75C25.2129 43.75 24.418 43.4207 23.832 42.8347C23.2459 42.2486 22.9167 41.4538 22.9167 40.625C22.9167 39.7962 23.2459 39.0013 23.832 38.4153C24.418 37.8292 25.2129 37.5 26.0417 37.5C27.6938 37.5 29.5229 37.2604 30.6396 38.7687C33.3396 37.4833 35.4167 34.7687 35.4167 31.25V18.75C35.4167 15.9873 34.3192 13.3378 32.3657 11.3843C30.4122 9.43076 27.7627 8.33329 25 8.33329C22.2373 8.33329 19.5878 9.43076 17.6343 11.3843C15.6808 13.3378 14.5834 15.9873 14.5834 18.75V31.7708C14.5834 32.7377 14.1992 33.6651 13.5155 34.3488C12.8318 35.0325 11.9045 35.4166 10.9375 35.4166C9.14178 35.4166 7.4196 34.7033 6.14982 33.4335C4.88004 32.1637 4.16669 30.4415 4.16669 28.6458V28.125C4.16624 26.3712 4.79785 24.6761 5.94576 23.3503C7.09367 22.0244 8.68096 21.1567 10.4167 20.9062V18.75Z" fill="#6D6D6D"/>
</svg>
